<svg xmlns="http://www.w3.org/2000/svg" viewBox="0 0 100 100">
  <defs>
    <linearGradient id="gradient" x1="0%" y1="0%" x2="100%" y2="100%">
      <stop offset="0%" stop-color="#6366F1" />
      <stop offset="100%" stop-color="#EC4899" />
    </linearGradient>
  </defs>
  <path
    d="M50 5C25.1 5 5 25.1 5 50s20.1 45 45 45 45-20.1 45-45S74.9 5 50 5zm0 85c-22.1 0-40-17.9-40-40S27.9 10 50 10s40 17.9 40 40-17.9 40-40 40z"
    fill="url(#gradient)"
  />
  <path
    d="M70.3 29.7l-20-20c-1.6-1.6-4.1-1.6-5.7 0l-20 20c-1.6 1.6-1.6 4.1 0 5.7l20 20c1.6 1.6 4.1 1.6 5.7 0l20-20c1.5-1.6 1.5-4.2 0-5.7zm-24.1 16.2l-11.5-11.5 11.5-11.5 11.5 11.5-11.5 11.5z"
    fill="#fff"
  />
</svg>